<svg width="46" height="46" viewBox="0 0 46 46" fill="none" xmlns="http://www.w3.org/2000/svg">
<g clip-path="url(#clip0_2_57)">
<path d="M23.0419 0.0419922C20.0743 0.0419922 17.6611 2.54485 17.6611 5.51248C17.6611 8.4801 20.0743 10.8933 23.0419 10.8933C26.0095 10.8933 28.4227 8.4801 28.4227 5.51248C28.4227 2.54485 26.0095 0.0419922 23.0419 0.0419922Z" fill="white"/>
<path d="M23.0419 21.6549C19.9092 21.6549 15.453 21.3826 12.5418 20.0424L14.9708 41.9225C14.9708 44.7101 18.3548 45.9581 23.042 45.9581C27.7292 45.9581 31.1132 44.7101 31.1053 42.0709L33.5429 20.042C30.6316 21.3825 26.1749 21.6549 23.0419 21.6549Z" fill="white"/>
<path d="M36.4938 18.9645C36.4513 18.9645 36.4121 18.9679 36.3697 18.9681L35.7743 24.3245C36.016 24.3298 36.2473 24.3453 36.4938 24.3453C41.6943 24.3453 45.9999 23.1406 45.9999 21.6549C45.9999 20.1689 41.6943 18.9645 36.4938 18.9645Z" fill="white"/>
<path d="M36.4938 27.0355L35.4755 27.0128L33.793 42.2388C33.7577 43.5464 33.2583 44.7328 32.3744 45.7168C33.2498 45.8618 34.1743 45.9578 35.1488 45.9578C39.0358 45.9578 43.3095 44.6954 43.2963 42.1127L45.6528 25.5286C42.6868 26.8809 38.2783 27.0355 36.4938 27.0355Z" fill="white"/>
<path d="M9.63024 18.9681C9.58793 18.9679 9.54866 18.9645 9.50617 18.9645C4.30548 18.9645 0 20.1689 0 21.6548C0 23.1406 4.30548 24.3452 9.50608 24.3452C9.75252 24.3452 9.98387 24.3298 10.2256 24.3245L9.63024 18.9681Z" fill="white"/>
<path d="M12.207 42.239L10.5245 27.013L9.50608 27.0357C7.72161 27.0357 3.31307 26.881 0.347157 25.5289L2.70357 42.1131C2.69037 44.6957 6.96405 45.9582 10.8512 45.9582C11.8256 45.9582 12.7501 45.8621 13.6256 45.7171C12.7416 44.733 12.2423 43.5466 12.207 42.239Z" fill="white"/>
<path d="M23.0423 18.9646C28.9857 18.9646 33.8038 17.7601 33.8038 16.2742C33.8038 14.7884 28.9857 13.5839 23.0423 13.5839C17.0988 13.5839 12.2807 14.7884 12.2807 16.2742C12.2807 17.7601 17.0988 18.9646 23.0423 18.9646Z" fill="white"/>
</g>
<defs>
<clipPath id="clip0_2_57">
<rect width="46" height="46" fill="white"/>
</clipPath>
</defs>
</svg>
