<svg width="42" height="42" viewBox="0 0 42 42" fill="none" xmlns="http://www.w3.org/2000/svg">
<g clip-path="url(#clip0_1_897)">
<path d="M19.2947 3.05985L18.3801 0.773723C18.1277 0.142821 17.4116 -0.164058 16.7806 0.0883518C16.7806 0.0883518 4.36842 5.05723 4.31592 5.08274L9.2309 8.41059L18.6093 4.65946C19.2404 4.40705 19.5472 3.69084 19.2947 3.05985Z" fill="white"/>
<path d="M2.92934 7.33568V10.9871H7.85121V10.4484L2.93852 7.12207C2.93311 7.19311 2.92934 7.26431 2.92934 7.33568Z" fill="white"/>
<path d="M2.92934 13.4531V40.7695C2.92934 41.4491 3.48026 42 4.15981 42H6.62074C7.30029 42 7.85121 41.4491 7.85121 40.7695V13.4531H2.92934Z" fill="white"/>
<path d="M38.9822 3.05985L38.0676 0.773723C37.8152 0.142821 37.0991 -0.164058 36.4681 0.0883518C36.4681 0.0883518 24.0559 5.05723 24.0034 5.08274L28.9184 8.41059L38.2968 4.65946C38.9279 4.40705 39.2347 3.69084 38.9822 3.05985Z" fill="white"/>
<path d="M22.6168 7.33568V10.9871H27.5387V10.4484L22.626 7.12207C22.6206 7.19311 22.6168 7.26431 22.6168 7.33568Z" fill="white"/>
<path d="M22.6168 13.4531V40.7695C22.6168 41.4491 23.1678 42 23.8473 42H26.3082C26.9878 42 27.5387 41.4491 27.5387 40.7695V13.4531H22.6168Z" fill="white"/>
</g>
<defs>
<clipPath id="clip0_1_897">
<rect width="42" height="42" fill="white"/>
</clipPath>
</defs>
</svg>
