<svg width="54" height="54" viewBox="0 0 54 54" fill="none" xmlns="http://www.w3.org/2000/svg">
<g clip-path="url(#clip0_3_70)">
<path d="M33.4336 32.9062H36.0703V31.3242C36.0703 30.4505 36.7786 29.7422 37.6523 29.7422H52.418C53.2917 29.7422 54 30.4505 54 31.3242V36.0703H33.4336C33.1428 36.0703 32.9062 36.3069 32.9062 36.5977V42.9258C32.9062 43.2166 33.1428 43.4531 33.4336 43.4531H36.0703V39.2344H54V50.3086C54 52.344 52.344 54 50.3086 54H39.7617C37.7263 54 36.0703 52.344 36.0703 50.3086V46.6172H33.4336C31.3982 46.6172 29.7422 44.9612 29.7422 42.9258V36.5977C29.7422 34.5622 31.3982 32.9062 33.4336 32.9062Z" fill="white"/>
<path d="M0.447079 10.4891C0.98286 9.3401 1.93397 8.46861 3.12524 8.03492L5.60302 7.13306L12.0961 24.9727L9.61843 25.8745C9.08444 26.0689 8.5378 26.1611 7.9998 26.161C6.06065 26.161 4.23594 24.9631 3.5352 23.038L0.288663 14.1183C-0.144814 12.927 -0.0885973 11.638 0.447079 10.4891Z" fill="white"/>
<path d="M22.0044 21.3562L15.5117 3.51079L8.57197 6.03567L15.0647 23.8811L22.0044 21.3562Z" fill="white"/>
<path d="M20.7309 1.62711C22.6645 0.923317 24.7941 1.36513 26.2883 2.77988C26.9066 3.36534 27.7878 3.54833 28.5883 3.25681L37.274 0.0953872C37.6684 -0.0479449 38.1034 -0.0292769 38.4837 0.148227C38.864 0.325625 39.1582 0.646778 39.3018 1.04102L40.5759 4.54174C40.7245 4.61019 40.8757 4.67885 41.0313 4.7493C43.1244 5.69673 45.7294 6.87597 47.4956 10.8235C49.037 14.2683 49.7532 19.34 49.7008 26.5782H46.5356C46.5826 19.8642 45.9465 15.1083 44.6075 12.1158C43.8394 10.3992 42.9282 9.44224 41.9028 8.76112C41.8802 8.90762 41.8378 9.05158 41.774 9.18838C41.5966 9.56859 41.2754 9.86285 40.8812 10.0064L32.1954 13.1676C31.3951 13.459 30.8375 14.1654 30.7401 15.0114C30.505 17.0556 29.1576 18.7627 27.2238 19.4667L24.9801 20.2834L18.4871 2.44375L20.7309 1.62711Z" fill="white"/>
</g>
<defs>
<clipPath id="clip0_3_70">
<rect width="54" height="54" fill="white" transform="matrix(-1 0 0 1 54 0)"/>
</clipPath>
</defs>
</svg>
