<svg width="56" height="56" viewBox="0 0 56 56" fill="none" xmlns="http://www.w3.org/2000/svg">
<g clip-path="url(#clip0_3_44)">
<path d="M14.1977 12.8037C1.71656 16.5627 -3.61878 28.8821 2.60997 38.5502L1.28011 49.1897L9.64001 45.0098C16.1216 48.6264 24.3035 48.8985 30.9381 46.1093C25.8781 45.4644 21.1846 43.4835 17.4502 40.3715C8.34683 32.7856 7.69651 20.9826 14.1977 12.8037Z" fill="white"/>
<path d="M49.6171 12.0193C41.2838 5.07494 27.8948 5.07297 19.5589 12.0193C11.0424 19.1167 11.0434 30.745 19.5589 37.8412C26.9106 43.9675 38.1313 44.6607 46.3604 40.0691L54.7203 44.2491L53.3904 33.6093C57.7878 26.7872 56.6914 17.9148 49.6171 12.0193ZM36.2349 36.4589H32.941V33.165H36.2349V36.4589ZM38.535 25.2642C37.0732 26.3594 36.2349 27.9836 36.2349 29.7204V29.8711H32.941C32.9606 29.7895 32.6172 25.5824 36.5601 22.628C37.4274 21.9783 37.9206 20.9433 37.8794 19.8595C37.8145 18.1515 36.4259 16.7629 34.718 16.698C32.836 16.6271 31.2941 18.1255 31.2941 19.9894H28.0002C28.0002 16.2647 31.0825 13.2654 34.8429 13.4064C38.2615 13.5363 41.041 16.3159 41.1709 19.7344C41.2531 21.8988 40.2677 23.9661 38.535 25.2642Z" fill="white"/>
</g>
<defs>
<clipPath id="clip0_3_44">
<rect width="56" height="56" fill="white"/>
</clipPath>
</defs>
</svg>
