<svg width="50" height="50" viewBox="0 0 50 50" fill="none" xmlns="http://www.w3.org/2000/svg">
<g clip-path="url(#clip0_3_3)">
<path d="M11.8164 6.68945H4.39453C3.58486 6.68945 2.92969 7.34463 2.92969 8.1543C2.92969 8.96396 3.58486 9.61914 4.39453 9.61914H11.8164C12.6261 9.61914 13.2812 8.96396 13.2812 8.1543C13.2812 7.34463 12.6261 6.68945 11.8164 6.68945Z" fill="white"/>
<path d="M11.8164 18.4082H4.39453C3.58486 18.4082 2.92969 19.0634 2.92969 19.873C2.92969 20.6827 3.58486 21.3379 4.39453 21.3379H11.8164C12.6261 21.3379 13.2812 20.6827 13.2812 19.873C13.2812 19.0634 12.6261 18.4082 11.8164 18.4082Z" fill="white"/>
<path d="M8.88672 12.5488H1.46484C0.655176 12.5488 0 13.204 0 14.0137C0 14.8233 0.655176 15.4785 1.46484 15.4785H8.88672C9.69639 15.4785 10.3516 14.8233 10.3516 14.0137C10.3516 13.204 9.69639 12.5488 8.88672 12.5488Z" fill="white"/>
<path d="M47.0703 19.8731H38.1836V14.0137C38.1836 11.4409 35.0362 10.0862 33.1816 11.9432L21.4638 23.6611C20.3193 24.8055 20.3193 26.6594 21.4638 27.8039L28.1814 34.5216L19.9989 42.7041C18.8545 43.8485 18.8545 45.7024 19.9989 46.8468C21.1433 47.9912 22.9973 47.9913 24.1417 46.8468L34.3956 36.5929C35.54 35.4485 35.54 33.5946 34.3956 32.4502L27.6779 25.7325L32.3242 21.0862V22.8028C32.3242 24.4207 33.636 25.7325 35.2539 25.7325H47.0703C48.6882 25.7325 50 24.4207 50 22.8028C50 21.1849 48.6882 19.8731 47.0703 19.8731Z" fill="white"/>
<path d="M27.3574 4.98437C26.193 4.21044 24.648 4.36357 23.6609 5.35058L15.6043 13.4072C14.4599 14.5517 14.4599 16.4056 15.6043 17.55C16.7487 18.6944 18.6027 18.6943 19.7472 17.5499L26.1058 11.1913L28.2478 12.7343L31.1097 9.87235C31.5884 9.39364 32.153 9.02206 32.7705 8.73192L27.3574 4.98437Z" fill="white"/>
<path d="M19.3924 29.8752C18.6501 29.1329 18.1546 28.2193 17.8934 27.2314L2.4208 42.704C1.27637 43.8484 1.27637 45.7023 2.4208 46.8468C3.56514 47.9911 5.41914 47.9912 6.56358 46.8468L21.4638 31.9466L19.3924 29.8752Z" fill="white"/>
<path d="M39.6484 11.084C42.0755 11.084 44.043 9.11649 44.043 6.68945C44.043 4.26242 42.0755 2.29492 39.6484 2.29492C37.2214 2.29492 35.2539 4.26242 35.2539 6.68945C35.2539 9.11649 37.2214 11.084 39.6484 11.084Z" fill="white"/>
</g>
<defs>
<clipPath id="clip0_3_3">
<rect width="50" height="50" fill="white"/>
</clipPath>
</defs>
</svg>
