<svg width="64" height="48" viewBox="0 0 64 48" fill="none" xmlns="http://www.w3.org/2000/svg">
<path d="M35.6084 0C41.2882 0 43.9796 1.44336 45.6533 1.44336C45.8911 1.4433 46.0115 1.38304 46.0713 1.32227H46.668V10.9941H45.7119C44.5761 6.06824 40.8096 3.90527 36.625 3.90527C29.8097 3.90536 24.249 9.61198 24.249 23.3701C24.2491 38.087 30.4076 43.916 36.8643 43.916C38.7181 43.916 40.0315 43.6747 40.8701 43.3145V29.2578C40.8701 27.214 40.3318 24.6314 38.1201 24.1523V23H49V24.0918C48.7019 24.2686 48.5821 27.0334 48.582 28.2363V46.0771C48.1615 46.2576 42.9008 48 35.9668 48C25.1473 48 16.0001 40.1316 16 23.6719C16 9.4325 24.0105 0.000145816 35.6084 0ZM5 25H0V23H5V25ZM13 25H8V23H13V25ZM34 25H29V23H34V25ZM56 25H51V23H56V25ZM64 25H59V23H64V25Z" fill="white"/>
</svg>
