<svg xmlns="http://www.w3.org/2000/svg" version="1.1" xmlns:xlink="http://www.w3.org/1999/xlink" width="512" height="512"><svg xmlns="http://www.w3.org/2000/svg" version="1.1" xmlns:xlink="http://www.w3.org/1999/xlink" width="512" height="512"><svg width="512" height="512" viewBox="0 0 512 512" fill="none" xmlns="http://www.w3.org/2000/svg">
<g clip-path="url(#clip0_12_19)">
<rect width="512" height="512" rx="81" fill="white"></rect>
<path d="M149.966 158.018L138.967 70.0222C142.042 69.6054 144.447 67.0807 144.447 63.8901C144.447 61.4569 143.028 59.4097 141.01 58.3613L143.39 54.7894C144.682 52.8585 144.798 50.3745 143.704 48.3208C142.609 46.2796 140.475 45.0004 138.151 45.0004H87.7789C85.4542 45.0004 83.3209 46.2796 82.2265 48.3208C81.132 50.3745 81.2489 52.8591 82.5399 54.7894L84.9206 58.3613C82.9024 59.4097 81.4827 61.4569 81.4827 63.8901C81.4827 67.0807 83.8888 69.6054 86.9637 70.0222L75.9639 158.018C60.3049 169.484 50 187.862 50 208.711V322.05C49.9988 335.934 61.2949 347.236 75.1853 347.236H150.744C164.635 347.236 175.931 335.934 175.931 322.05V208.711C175.931 187.862 165.626 169.484 149.966 158.018Z" fill="#0078D0"></path>
<path d="M293.07 278.224L282.07 190.228C285.145 189.812 287.551 187.287 287.551 184.096C287.551 181.663 286.131 179.616 284.113 178.567L286.494 174.996C287.785 173.065 287.902 170.581 286.807 168.527C285.713 166.486 283.579 165.207 281.255 165.207H230.882C228.558 165.207 226.424 166.486 225.33 168.527C224.235 170.581 224.352 173.065 225.643 174.996L228.024 178.567C226.006 179.616 224.586 181.663 224.586 184.096C224.586 187.287 226.992 189.812 230.067 190.228L219.067 278.224C203.408 289.69 193.103 308.068 193.103 328.917V442.256C193.102 456.14 204.398 467.442 218.289 467.442H293.848C307.738 467.442 319.034 456.14 319.034 442.256V328.917C319.034 308.068 308.729 289.69 293.07 278.224Z" fill="#FFB114"></path>
<path d="M436.172 158.018L425.173 70.0218C428.248 69.6051 430.654 67.0803 430.654 63.8897C430.654 61.4565 429.234 59.4093 427.216 58.3609L429.596 54.789C430.888 52.8581 431.004 50.3741 429.91 48.3205C428.815 46.2792 426.681 45 424.357 45H373.985C371.66 45 369.527 46.2792 368.433 48.3205C367.338 50.3741 367.455 52.8587 368.746 54.789L371.127 58.3609C369.109 59.4093 367.689 61.4565 367.689 63.8897C367.689 67.0803 370.095 69.6051 373.17 70.0218L362.17 158.018C346.511 169.483 336.206 187.861 336.206 208.711V322.049C336.205 335.934 347.501 347.236 361.391 347.236H436.95C450.841 347.236 462.137 335.934 462.137 322.049V208.711C462.137 187.861 451.832 169.483 436.172 158.018Z" fill="black"></path>
</g>
<defs>
<clipPath id="clip0_12_19">
<rect width="512" height="512" fill="white"></rect>
</clipPath>
</defs>
</svg></svg><style>@media (prefers-color-scheme: light) { :root { filter: none; } }
@media (prefers-color-scheme: dark) { :root { filter: none; } }
</style></svg>