<svg width="393" height="165" viewBox="0 0 393 165" fill="none" xmlns="http://www.w3.org/2000/svg" xmlns:xlink="http://www.w3.org/1999/xlink">
<rect width="393" height="165" fill="url(#pattern0_15_194)"/>
<rect x="123" y="67" width="148" height="49" rx="10" fill="white" fill-opacity="0.75"/>
<path d="M238.904 98.438C238.499 98.438 238.175 98.33 237.932 98.114C237.689 97.898 237.567 97.601 237.567 97.2231V89.5896C237.567 87.7943 238.128 86.3905 239.248 85.3781C240.368 84.3657 241.921 83.8595 243.905 83.8595C245.889 83.8595 247.442 84.3657 248.562 85.3781C249.682 86.3905 250.243 87.7943 250.243 89.5896V97.2231C250.243 97.601 250.121 97.898 249.878 98.114C249.635 98.33 249.311 98.438 248.906 98.438C248.501 98.438 248.171 98.33 247.914 98.114C247.671 97.8845 247.55 97.5876 247.55 97.2231V89.5289C247.55 88.3815 247.239 87.5041 246.618 86.8967C245.997 86.2892 245.093 85.9855 243.905 85.9855C242.717 85.9855 241.813 86.2892 241.192 86.8967C240.571 87.5041 240.26 88.3815 240.26 89.5289V97.2231C240.26 97.5876 240.132 97.8845 239.876 98.114C239.633 98.33 239.309 98.438 238.904 98.438Z" fill="#2D4834"/>
<path d="M224.113 98.4177C223.708 98.4177 223.384 98.3097 223.142 98.0937C222.899 97.8778 222.777 97.5808 222.777 97.2028V90.1161C222.777 88.1588 223.337 86.6267 224.458 85.5198C225.578 84.4129 227.137 83.8595 229.135 83.8595C230.444 83.8595 231.578 84.1092 232.537 84.6087C233.495 85.1081 234.224 85.8303 234.723 86.7752C235.236 87.7201 235.493 88.8337 235.493 90.1161V97.2028C235.493 97.5808 235.371 97.8778 235.128 98.0937C234.885 98.3097 234.561 98.4177 234.156 98.4177C233.751 98.4177 233.421 98.3097 233.164 98.0937C232.921 97.8643 232.8 97.5673 232.8 97.2028V93.9024H225.47V97.2028C225.47 97.5673 225.342 97.8643 225.085 98.0937C224.842 98.3097 224.518 98.4177 224.113 98.4177ZM232.8 91.8169V90.0553C232.8 88.7055 232.489 87.6931 231.868 87.0182C231.261 86.3297 230.35 85.9855 229.135 85.9855C226.692 85.9855 225.47 87.3421 225.47 90.0553V91.8169H232.8Z" fill="#2D4834"/>
<path d="M211.13 98.2355C210.104 98.2355 209.307 97.9655 208.741 97.4255C208.174 96.8856 207.89 96.1297 207.89 95.1578V87.0586C207.89 86.1137 208.16 85.3781 208.7 84.8516C209.253 84.3252 210.016 84.062 210.988 84.062H215.665C217.231 84.062 218.439 84.3927 219.29 85.0541C220.14 85.7155 220.565 86.6739 220.565 87.9293C220.565 88.5502 220.383 89.1307 220.019 89.6706C219.654 90.1971 219.182 90.5953 218.601 90.8652V90.8855C219.249 91.142 219.776 91.5537 220.181 92.1206C220.599 92.674 220.808 93.2747 220.808 93.9227C220.808 95.2725 220.37 96.3322 219.492 97.1016C218.628 97.8575 217.434 98.2355 215.908 98.2355H211.13ZM215.665 89.9136C216.354 89.9136 216.887 89.7449 217.265 89.4074C217.656 89.0699 217.852 88.584 217.852 87.9495C217.852 87.3286 217.67 86.8697 217.305 86.5727C216.941 86.2757 216.394 86.1272 215.665 86.1272H211.413C211.143 86.1272 210.927 86.215 210.765 86.3905C210.617 86.5659 210.543 86.8089 210.543 87.1194V89.9136H215.665ZM215.665 96.1702C217.285 96.1702 218.095 95.4345 218.095 93.9632C218.095 93.3287 217.879 92.836 217.447 92.4851C217.029 92.1341 216.435 91.9586 215.665 91.9586H210.543V95.178C210.543 95.4885 210.617 95.7315 210.765 95.907C210.927 96.0824 211.143 96.1702 211.413 96.1702H215.665Z" fill="#2D4834"/>
<path d="M196.142 98.2355C195.116 98.2355 194.319 97.9655 193.752 97.4255C193.185 96.8856 192.902 96.1297 192.902 95.1578V87.0586C192.902 86.1137 193.172 85.3781 193.712 84.8516C194.265 84.3252 195.028 84.062 196 84.062H200.677C202.243 84.062 203.451 84.3927 204.301 85.0541C205.152 85.7155 205.577 86.6739 205.577 87.9293C205.577 88.5502 205.395 89.1307 205.03 89.6706C204.666 90.1971 204.193 90.5953 203.613 90.8652V90.8855C204.261 91.142 204.787 91.5537 205.192 92.1206C205.611 92.674 205.82 93.2747 205.82 93.9227C205.82 95.2725 205.381 96.3322 204.504 97.1016C203.64 97.8575 202.445 98.2355 200.92 98.2355H196.142ZM200.677 89.9136C201.366 89.9136 201.899 89.7449 202.277 89.4074C202.668 89.0699 202.864 88.584 202.864 87.9495C202.864 87.3286 202.682 86.8697 202.317 86.5727C201.953 86.2757 201.406 86.1272 200.677 86.1272H196.425C196.155 86.1272 195.939 86.215 195.777 86.3905C195.629 86.5659 195.554 86.8089 195.554 87.1194V89.9136H200.677ZM200.677 96.1702C202.297 96.1702 203.107 95.4345 203.107 93.9632C203.107 93.3287 202.891 92.836 202.459 92.4851C202.04 92.1341 201.447 91.9586 200.677 91.9586H195.554V95.178C195.554 95.4885 195.629 95.7315 195.777 95.907C195.939 96.0824 196.155 96.1702 196.425 96.1702H200.677Z" fill="#2D4834"/>
<path d="M184.288 98.438C183.019 98.438 181.906 98.1815 180.947 97.6685C180.002 97.1556 179.267 96.4267 178.74 95.4818C178.227 94.5234 177.971 93.3962 177.971 92.1004V85.0744C177.971 84.6964 178.092 84.3994 178.335 84.1835C178.578 83.9675 178.902 83.8595 179.307 83.8595C179.712 83.8595 180.036 83.9742 180.279 84.2037C180.535 84.4197 180.664 84.7099 180.664 85.0744V92.1611C180.664 93.4975 180.981 94.5234 181.615 95.2388C182.25 95.9542 183.161 96.3119 184.349 96.3119C185.523 96.3119 186.428 95.9542 187.062 95.2388C187.71 94.5099 188.034 93.484 188.034 92.1611V85.0744C188.034 84.7099 188.155 84.4197 188.398 84.2037C188.655 83.9742 188.986 83.8595 189.391 83.8595C189.796 83.8595 190.119 83.9675 190.362 84.1835C190.605 84.3994 190.727 84.6964 190.727 85.0744V92.1004C190.727 93.3557 190.457 94.4626 189.917 95.421C189.391 96.3794 188.641 97.1219 187.669 97.6483C186.698 98.1747 185.57 98.438 184.288 98.438Z" fill="#2D4834"/>
<path d="M169.383 98.438C167.858 98.438 166.535 98.1477 165.414 97.5673C164.294 96.9869 163.437 96.15 162.843 95.0566C162.249 93.9632 161.952 92.6673 161.952 91.169C161.952 89.6706 162.249 88.3748 162.843 87.2814C163.437 86.1745 164.287 85.3308 165.394 84.7504C166.515 84.1565 167.831 83.8595 169.342 83.8595C170.598 83.8595 171.759 84.0755 172.825 84.5074C173.891 84.9394 174.681 85.5131 175.194 86.2285C175.356 86.4445 175.437 86.6672 175.437 86.8967C175.437 87.2341 175.255 87.5379 174.89 87.8078C174.728 87.9293 174.526 87.9901 174.283 87.9901C174.08 87.9901 173.878 87.9496 173.676 87.8686C173.473 87.7741 173.304 87.6458 173.169 87.4839C172.71 86.9574 172.177 86.5795 171.57 86.35C170.962 86.107 170.22 85.9855 169.342 85.9855C167.871 85.9855 166.724 86.4445 165.9 87.3624C165.077 88.2668 164.665 89.5356 164.665 91.169C164.665 92.7888 165.077 94.0509 165.9 94.9553C166.737 95.8597 167.898 96.3119 169.383 96.3119C170.611 96.3119 171.57 96.0757 172.258 95.6033C172.96 95.1308 173.311 94.4761 173.311 93.6392V93.1938C173.311 92.9103 173.244 92.7146 173.109 92.6066C172.987 92.4986 172.771 92.4446 172.461 92.4446H169.808C169.43 92.4446 169.133 92.3569 168.917 92.1814C168.701 91.9924 168.593 91.7359 168.593 91.412C168.593 91.0745 168.695 90.818 168.897 90.6425C169.113 90.4536 169.417 90.3591 169.808 90.3591H173.736C174.519 90.3591 175.093 90.5278 175.457 90.8653C175.822 91.1892 176.004 91.7089 176.004 92.4243V93.214C176.004 94.2399 175.727 95.1511 175.174 95.9475C174.62 96.7304 173.837 97.3446 172.825 97.79C171.826 98.222 170.679 98.438 169.383 98.438Z" fill="#2D4834"/>
<path d="M148.543 102.138C148.606 102.24 148.718 102.516 148.661 102.8C148.495 103.06 148.33 103.06 147.928 103.131C147.606 103.188 146.895 103.234 146.58 103.249C146.407 103.304 146.013 103.358 145.824 103.131C145.587 102.847 145.871 102.516 146.273 102.233C146.594 102.006 147.227 101.949 147.502 101.949C147.573 101.539 147.758 100.544 147.928 99.8444C148.098 99.1446 148.377 98.1972 148.495 97.811L148.464 97.7891C147.508 97.1197 147.133 96.8571 146.689 96.1086C146.207 95.2982 146.176 94.1697 146.239 93.5786C146.129 93.752 145.895 94.0987 145.705 94.3825C145.516 94.6662 145.296 95.1785 145.209 95.3992C145.43 95.6829 145.8 96.3214 145.516 96.6051C145.232 96.8888 144.752 96.8337 144.547 96.7706C144.279 97.1726 143.634 97.915 143.199 97.6691C142.655 97.3617 143.388 96.1086 143.483 95.8012C143.577 95.4938 143.648 95.2101 143.743 94.9972C143.819 94.827 144.027 94.7844 144.121 94.7844C144.216 94.5874 144.608 93.9285 145.422 92.8692C146.235 91.8099 146.917 91.285 147.209 91.2141C147.39 91.0722 147.55 90.8594 148.036 90.5757C148.338 90.4 148.913 90.1973 149.11 90.1264L148.992 88.9678C148.598 88.9678 147.781 88.9536 147.668 88.8969C147.554 88.8401 147.542 88.6526 147.55 88.5659C147.573 88.2427 147.559 87.2512 147.313 85.8703C147.006 84.1443 146.793 83.8842 146.509 82.6783C146.282 81.7136 146.32 80.4636 146.367 79.9591C146.36 79.9119 146.349 79.7984 146.367 79.7227C146.386 79.647 146.517 79.5966 146.58 79.5808C146.88 79.4705 147.72 79.212 148.685 79.0606C149.89 78.8715 151.025 79.1789 151.096 79.2498C151.167 79.3207 151.286 79.9119 151.451 81.2123C151.617 82.5128 151.569 83.1512 151.38 84.9009C151.229 86.3007 151.443 87.6122 151.569 88.093C151.601 88.1875 151.635 88.4145 151.522 88.5659C151.408 88.7172 150.387 88.8969 149.89 88.9678L149.985 90.0082C150.253 90.0082 150.921 90.0318 151.451 90.1264C151.981 90.221 152.728 90.686 153.035 90.9067C153.398 90.4259 154.17 89.3887 154.359 89.086C154.549 88.7834 155.053 87.7146 155.282 87.2181C155.148 87.0447 154.87 86.627 154.832 86.3432C154.794 86.0595 155.006 85.4526 155.116 85.1846C155.226 84.7827 155.565 83.9977 156.038 84.0733C156.511 84.149 156.409 85.1452 156.298 85.6339C156.353 85.6024 156.53 85.6197 156.795 85.9413C157.126 86.3432 157.197 87.0053 156.96 87.3363C156.771 87.6011 156.361 87.6201 156.18 87.5964C155.975 88.0536 155.509 89.0671 155.282 89.4644C155.055 89.8616 154.147 91.0643 153.721 91.616C153.831 91.8052 154.16 92.3963 154.302 92.9401C154.463 93.5562 154.539 94.5953 154.208 95.612C153.943 96.4254 153.313 97.1227 153.313 97.1227C153.313 97.1227 153.376 97.7063 153.394 97.8819L153.857 101.638L156.349 101.425C156.718 101.425 156.98 101.689 157.025 102.138C157.08 102.682 156.647 102.969 156.349 102.969L153.4 103.206C153.15 103.206 152.62 103.03 152.43 102.803C152.241 102.576 152.17 102.28 152.133 102.043L151.707 97.8819C151.487 97.9371 151.273 98.043 150.756 98.0947C150.283 98.142 149.757 98.0947 149.607 98.0711C149.465 98.4652 149.139 99.4283 148.968 99.939C148.798 100.45 148.614 101.618 148.543 102.138Z" fill="url(#paint0_linear_15_194)"/>
<path d="M152.66 91.267C153.142 91.6171 153.495 92.0667 153.719 92.6157C153.943 93.1648 154.015 93.7844 153.935 94.4747C153.854 95.1779 153.634 95.7767 153.276 96.2713C152.925 96.7602 152.459 97.1148 151.877 97.335C151.296 97.5553 150.641 97.6231 149.912 97.5386C149.583 97.5004 149.27 97.4347 148.974 97.3415L148.768 97.6804C148.711 97.772 148.632 97.8379 148.529 97.8783C148.432 97.9259 148.325 97.9429 148.209 97.9295C148.125 97.9197 148.034 97.8863 147.937 97.8292C147.839 97.7721 147.765 97.6982 147.717 97.6076C147.675 97.5177 147.66 97.4212 147.672 97.318C147.681 97.2406 147.71 97.1589 147.759 97.0731L147.918 96.8071C147.455 96.4527 147.115 96.0046 146.897 95.4628C146.685 94.9217 146.618 94.3125 146.697 93.6351C146.779 92.9319 146.995 92.3359 147.346 91.847C147.704 91.3525 148.173 90.9951 148.755 90.7748C149.336 90.5546 149.991 90.4867 150.72 90.5713C151.01 90.6049 151.301 90.6648 151.592 90.7508L151.81 90.3936C151.867 90.2956 151.944 90.2261 152.04 90.185C152.137 90.1374 152.24 90.1199 152.35 90.1327C152.453 90.1446 152.544 90.1781 152.623 90.2329C152.733 90.298 152.812 90.3759 152.86 90.4665C152.915 90.5578 152.937 90.6519 152.926 90.7486C152.918 90.8131 152.899 90.8697 152.867 90.9183L152.66 91.267ZM147.936 93.7788C147.885 94.2175 147.907 94.6156 148.003 94.9733C148.1 95.3244 148.261 95.6243 148.487 95.8728L151.058 91.6304C150.92 91.5817 150.735 91.5439 150.503 91.5169C149.799 91.4354 149.218 91.5968 148.76 92.0012C148.301 92.4057 148.026 92.9982 147.936 93.7788ZM150.023 96.5805C150.765 96.6666 151.371 96.5114 151.842 96.1149C152.321 95.7127 152.605 95.1181 152.697 94.331C152.749 93.8794 152.721 93.4741 152.612 93.115C152.51 92.7566 152.336 92.452 152.09 92.2012L149.497 96.4704C149.673 96.5236 149.849 96.5603 150.023 96.5805Z" fill="#2D4834"/>
<path d="M152.879 102.577C153.103 102.752 153.399 102.821 153.769 102.786L156.22 102.547C156.361 102.533 156.467 102.491 156.539 102.42C156.615 102.344 156.647 102.248 156.636 102.131C156.624 102.009 156.576 101.921 156.492 101.865C156.408 101.805 156.293 101.781 156.147 101.796L153.812 102.023C153.715 102.032 153.634 102.008 153.57 101.951C153.51 101.893 153.475 101.808 153.464 101.696L152.978 97.2908C152.978 97.2908 152.848 97.4563 152.553 97.6218C152.257 97.7873 152.056 97.8582 152.056 97.8582L152.493 101.79C152.528 102.14 152.656 102.403 152.879 102.577Z" fill="#2D4834"/>
<path d="M148.798 55V46.2727H152.241C152.903 46.2727 153.467 46.3991 153.933 46.652C154.398 46.902 154.754 47.25 154.998 47.696C155.245 48.1392 155.369 48.6506 155.369 49.2301C155.369 49.8097 155.244 50.321 154.994 50.7642C154.744 51.2074 154.381 51.5526 153.907 51.7997C153.435 52.0469 152.864 52.1705 152.194 52.1705H149.999V50.6918H151.896C152.251 50.6918 152.543 50.6307 152.773 50.5085C153.006 50.3835 153.18 50.2116 153.293 49.9929C153.41 49.7713 153.468 49.517 153.468 49.2301C153.468 48.9403 153.41 48.6875 153.293 48.4716C153.18 48.2528 153.006 48.0838 152.773 47.9645C152.54 47.8423 152.245 47.7812 151.887 47.7812H150.643V55H148.798ZM156.567 55V46.2727H160.01C160.669 46.2727 161.232 46.3906 161.698 46.6264C162.167 46.8594 162.523 47.1903 162.767 47.6193C163.015 48.0455 163.138 48.5469 163.138 49.1236C163.138 49.7031 163.013 50.2017 162.763 50.6193C162.513 51.0341 162.151 51.3523 161.676 51.5739C161.205 51.7955 160.634 51.9062 159.963 51.9062H157.658V50.4233H159.665C160.017 50.4233 160.31 50.375 160.543 50.2784C160.776 50.1818 160.949 50.0369 161.063 49.8438C161.179 49.6506 161.238 49.4105 161.238 49.1236C161.238 48.8338 161.179 48.5895 161.063 48.3906C160.949 48.1918 160.775 48.0412 160.539 47.9389C160.306 47.8338 160.012 47.7812 159.657 47.7812H158.412V55H156.567ZM161.28 51.0284L163.449 55H161.412L159.29 51.0284H161.28ZM164.442 55V46.2727H170.323V47.794H166.287V49.8736H170.02V51.3949H166.287V53.4787H170.34V55H164.442ZM176.524 48.7827C176.49 48.4389 176.344 48.1719 176.085 47.9815C175.827 47.7912 175.476 47.696 175.033 47.696C174.732 47.696 174.477 47.7386 174.27 47.8239C174.063 47.9062 173.903 48.0213 173.793 48.169C173.685 48.3168 173.631 48.4844 173.631 48.6719C173.625 48.8281 173.658 48.9645 173.729 49.081C173.803 49.1974 173.903 49.2983 174.031 49.3835C174.159 49.4659 174.307 49.5384 174.474 49.6009C174.642 49.6605 174.821 49.7116 175.011 49.7543L175.795 49.9418C176.176 50.027 176.526 50.1406 176.844 50.2827C177.162 50.4247 177.438 50.5994 177.67 50.8068C177.903 51.0142 178.084 51.2585 178.212 51.5398C178.342 51.821 178.409 52.1435 178.412 52.5071C178.409 53.0412 178.273 53.5043 178.003 53.8963C177.736 54.2855 177.349 54.5881 176.844 54.804C176.341 55.017 175.734 55.1236 175.024 55.1236C174.32 55.1236 173.706 55.0156 173.183 54.7997C172.663 54.5838 172.257 54.2642 171.964 53.8409C171.675 53.4148 171.523 52.8878 171.509 52.2599H173.294C173.314 52.5526 173.398 52.7969 173.545 52.9929C173.696 53.1861 173.896 53.3324 174.146 53.4318C174.399 53.5284 174.685 53.5767 175.003 53.5767C175.315 53.5767 175.587 53.5312 175.817 53.4403C176.05 53.3494 176.23 53.223 176.358 53.0611C176.486 52.8991 176.55 52.7131 176.55 52.5028C176.55 52.3068 176.491 52.142 176.375 52.0085C176.261 51.875 176.094 51.7614 175.872 51.6676C175.653 51.5739 175.385 51.4886 175.067 51.4119L174.116 51.1733C173.381 50.9943 172.8 50.7145 172.374 50.3338C171.947 49.9531 171.736 49.4403 171.739 48.7955C171.736 48.267 171.876 47.8054 172.161 47.4105C172.447 47.0156 172.841 46.7074 173.341 46.4858C173.841 46.2642 174.409 46.1534 175.045 46.1534C175.693 46.1534 176.259 46.2642 176.741 46.4858C177.227 46.7074 177.605 47.0156 177.875 47.4105C178.145 47.8054 178.284 48.2628 178.293 48.7827H176.524ZM179.653 55V46.2727H185.534V47.794H181.498V49.8736H185.231V51.3949H181.498V53.4787H185.551V55H179.653ZM194.3 46.2727V55H192.707L188.91 49.5071H188.846V55H187.001V46.2727H188.62L192.387 51.7614H192.464V46.2727H194.3ZM195.493 47.794V46.2727H202.66V47.794H199.988V55H198.164V47.794H195.493ZM203.841 55V46.2727H209.721V47.794H205.686V49.8736H209.419V51.3949H205.686V53.4787H209.738V55H203.841ZM211.188 55V46.2727H214.631C215.29 46.2727 215.853 46.3906 216.319 46.6264C216.788 46.8594 217.144 47.1903 217.388 47.6193C217.636 48.0455 217.759 48.5469 217.759 49.1236C217.759 49.7031 217.634 50.2017 217.384 50.6193C217.134 51.0341 216.772 51.3523 216.298 51.5739C215.826 51.7955 215.255 51.9062 214.585 51.9062H212.279V50.4233H214.286C214.638 50.4233 214.931 50.375 215.164 50.2784C215.397 50.1818 215.57 50.0369 215.684 49.8438C215.8 49.6506 215.859 49.4105 215.859 49.1236C215.859 48.8338 215.8 48.5895 215.684 48.3906C215.57 48.1918 215.396 48.0412 215.16 47.9389C214.927 47.8338 214.633 47.7812 214.278 47.7812H213.033V55H211.188ZM215.901 51.0284L218.07 55H216.033L213.911 51.0284H215.901ZM218.731 47.794V46.2727H225.898V47.794H223.227V55H221.403V47.794H218.731ZM231.36 55H229.383L232.396 46.2727H234.774L237.782 55H235.805L233.619 48.267H233.551L231.36 55ZM231.237 51.5696H235.907V53.0099H231.237V51.5696ZM239.32 46.2727L241.429 52.9034H241.51L243.624 46.2727H245.669L242.661 55H240.283L237.27 46.2727H239.32Z" fill="black"/>
<defs>
<linearGradient id="paint0_linear_15_194" x1="143.378" y1="94.6426" x2="157.092" y2="94.6426" gradientUnits="userSpaceOnUse">
<stop stop-color="#D86813"/>
<stop offset="1" stop-color="#FBAF1B"/>
</linearGradient>
<pattern id="pattern0_15_194" patternUnits="userSpaceOnUse" patternTransform="matrix(200 0 0 200 0 0)" preserveAspectRatio="none" viewBox="0 0 400 400" width="1" height="1">
<g id="pattern0_15_194_inner">
<g clip-path="url(#clip0_15_194)">
<rect width="400" height="400" fill="#D0FFE7"/>
<g opacity="0.2">
<path d="M65.0455 165.993L69.1406 148.861C69.7416 148.998 70.3651 148.697 70.5878 148.104C70.7576 147.651 70.6364 147.171 70.3343 146.835L71.0262 146.337C71.4012 146.068 71.5961 145.615 71.5359 145.156C71.4749 144.7 71.1673 144.314 70.7351 144.151L61.368 140.636C60.9357 140.474 60.4497 140.563 60.1037 140.866C59.7569 141.172 59.6052 141.642 59.7106 142.091L59.9041 142.921C59.4556 142.976 59.0487 143.257 58.8789 143.71C58.6563 144.303 58.9275 144.94 59.4703 145.232L51.2842 160.828C47.5722 161.868 44.3734 164.566 42.9185 168.443L35.0094 189.52C34.0403 192.101 35.3522 194.991 37.9352 195.961L51.9861 201.233C54.5691 202.203 57.4584 200.889 58.4273 198.307L66.3363 177.231C67.7913 173.354 67.1575 169.217 65.0455 165.993Z" fill="#0078D0"/>
<path d="M38.9049 85.4581L21.3379 84.1738C21.3765 83.5585 20.9785 82.9917 20.3571 82.8675C19.8832 82.7727 19.4291 82.9695 19.1464 83.3217L18.5434 82.719C18.2176 82.3922 17.7383 82.2728 17.2957 82.406C16.8556 82.5397 16.5233 82.9055 16.4328 83.3581L14.4712 93.1689C14.3807 93.6217 14.5467 94.087 14.9017 94.3797C15.259 94.6728 15.7475 94.7468 16.1737 94.5705L16.9621 94.2459C17.0877 94.6799 17.4312 95.0361 17.9051 95.1308C18.5265 95.2551 19.1119 94.8848 19.3128 94.3021L36.0231 99.8713C37.6464 103.368 40.8245 106.09 44.8852 106.902L66.9597 111.316C69.6639 111.857 72.305 110.097 72.8459 107.391L75.7883 92.6752C76.3293 89.9698 74.5679 87.3296 71.8637 86.7889L49.7893 82.3752C45.7285 81.5633 41.7478 82.8547 38.9049 85.4581Z" fill="#0078D0"/>
<path d="M371.794 180.993L375.889 163.861C376.49 163.998 377.113 163.697 377.336 163.104C377.506 162.651 377.385 162.171 377.082 161.835L377.774 161.337C378.149 161.068 378.344 160.615 378.284 160.156C378.223 159.7 377.915 159.314 377.483 159.151L368.116 155.636C367.684 155.474 367.198 155.563 366.852 155.866C366.505 156.172 366.353 156.642 366.459 157.091L366.652 157.921C366.204 157.976 365.797 158.257 365.627 158.71C365.404 159.303 365.676 159.94 366.218 160.232L358.032 175.828C354.32 176.868 351.122 179.566 349.667 183.443L341.758 204.52C340.788 207.101 342.1 209.991 344.683 210.961L358.734 216.233C361.317 217.203 364.207 215.889 365.175 213.307L373.085 192.231C374.539 188.354 373.906 184.217 371.794 180.993Z" fill="#0078D0"/>
<path d="M171.658 383.986L177.581 367.398C178.164 367.599 178.816 367.367 179.102 366.801C179.319 366.369 179.251 365.879 178.987 365.513L179.729 365.092C180.13 364.866 180.373 364.436 180.363 363.973C180.352 363.514 180.088 363.096 179.676 362.888L170.743 358.38C170.331 358.172 169.838 358.208 169.462 358.472C169.084 358.739 168.882 359.19 168.938 359.648L169.041 360.494C168.589 360.499 168.154 360.735 167.937 361.167C167.651 361.732 167.852 362.395 168.36 362.744L158.535 377.364C154.733 377.996 151.261 380.333 149.395 384.03L139.254 404.127C138.011 406.589 139.003 409.604 141.466 410.847L154.864 417.608C157.327 418.851 160.342 417.858 161.584 415.396L171.726 395.298C173.591 391.601 173.409 387.42 171.658 383.986Z" fill="#0078D0"/>
<path d="M345.818 62.0972L332.081 73.1218C331.691 72.6451 331.013 72.5012 330.474 72.8334C330.062 73.0868 329.864 73.5401 329.896 73.9907L329.044 73.96C328.583 73.9427 328.151 74.1817 327.918 74.5807C327.687 74.9784 327.692 75.4725 327.934 75.8655L333.18 84.3849C333.423 84.7781 333.861 85.0057 334.32 84.9782C334.782 84.9494 335.19 84.6709 335.382 84.2515L335.738 83.4769C336.125 83.709 336.619 83.7359 337.031 83.4825C337.571 83.1503 337.747 82.4804 337.497 81.9169L353.525 74.613C357.095 76.0674 361.277 75.8963 364.803 73.7249L383.972 61.9214C386.32 60.4756 387.055 57.3881 385.608 55.0389L377.739 42.2597C376.293 39.9105 373.205 39.177 370.857 40.623L351.688 52.4265C348.162 54.5979 346.127 58.2547 345.818 62.0972Z" fill="#0078D0"/>
<path d="M252.745 359.382L239.117 370.54C238.721 370.068 238.042 369.93 237.506 370.268C237.097 370.525 236.903 370.98 236.94 371.431L236.088 371.408C235.627 371.395 235.197 371.639 234.967 372.04C234.74 372.44 234.751 372.934 234.997 373.325L240.326 381.792C240.572 382.183 241.012 382.406 241.471 382.374C241.932 382.341 242.337 382.059 242.525 381.637L242.874 380.859C243.264 381.088 243.758 381.11 244.167 380.852C244.703 380.515 244.873 379.843 244.618 379.282L260.574 371.822C264.158 373.242 268.338 373.03 271.842 370.824L290.895 358.834C293.229 357.365 293.934 354.271 292.465 351.936L284.471 339.234C283.002 336.899 279.907 336.196 277.573 337.665L258.52 349.655C255.015 351.86 253.016 355.537 252.745 359.382Z" fill="#FFB114"/>
<path d="M133.855 80.4477L131.671 62.9698C132.281 62.8871 132.759 62.3856 132.759 61.7519C132.759 61.2686 132.477 60.862 132.076 60.6538L132.549 59.9443C132.806 59.5608 132.829 59.0674 132.611 58.6595C132.394 58.2541 131.97 58 131.509 58H121.504C121.042 58 120.618 58.2541 120.401 58.6595C120.183 59.0674 120.207 59.5609 120.463 59.9443L120.936 60.6538C120.535 60.862 120.253 61.2686 120.253 61.7519C120.253 62.3856 120.731 62.8871 121.342 62.9698L119.157 80.4477C116.047 82.725 114 86.3752 114 90.5163V113.028C114 115.785 116.243 118.03 119.002 118.03H134.01C136.769 118.03 139.012 115.785 139.012 113.028V90.5163C139.012 86.3752 136.966 82.725 133.855 80.4477Z" fill="#FFB114"/>
<path d="M234.145 24.6764L219.899 35.0351C219.531 34.5403 218.861 34.3643 218.307 34.6706C217.883 34.9041 217.664 35.3475 217.675 35.799L216.826 35.7279C216.366 35.6886 215.923 35.9068 215.671 36.2943C215.421 36.6805 215.403 37.1743 215.626 37.5785L220.461 46.3377C220.684 46.742 221.111 46.9902 221.571 46.9845C222.033 46.9777 222.454 46.7189 222.666 46.3092L223.059 45.5524C223.435 45.8027 223.927 45.8531 224.35 45.6195C224.905 45.3133 225.113 44.6526 224.89 44.0779L241.248 37.5446C244.744 39.1671 248.929 39.1951 252.555 37.1939L272.263 26.3156C274.678 24.9831 275.559 21.9341 274.226 19.5187L266.973 6.37972C265.64 3.9643 262.591 3.08481 260.176 4.41746L240.468 15.2958C236.842 17.297 234.636 20.8529 234.145 24.6764Z" fill="#FFB114"/>
<path d="M20.3259 257.901L30.8277 243.761C31.3264 244.123 32.0183 244.091 32.4563 243.633C32.7904 243.284 32.8676 242.795 32.7219 242.367L33.554 242.181C34.0044 242.082 34.3621 241.741 34.487 241.296C34.6102 240.853 34.4795 240.376 34.1459 240.057L26.9157 233.142C26.582 232.823 26.1002 232.713 25.6628 232.856C25.2238 233.001 24.8995 233.373 24.8198 233.828L24.6711 234.667C24.2375 234.54 23.7527 234.639 23.4186 234.989C22.9806 235.447 22.9793 236.139 23.3635 236.621L9.70391 247.742C5.88223 247.238 1.88006 248.461 -0.982316 251.453L-16.5422 267.722C-18.4485 269.714 -18.3788 272.887 -16.385 274.794L-5.53959 285.168C-3.54581 287.075 -0.372819 287.003 1.53335 285.01L17.0932 268.742C19.9556 265.749 20.9995 261.697 20.3259 257.901Z" fill="#FFB114"/>
<path d="M211.65 137.907L222.503 124.035C222.993 124.409 223.685 124.395 224.134 123.948C224.477 123.607 224.567 123.12 224.432 122.689L225.268 122.524C225.721 122.436 226.087 122.104 226.223 121.662C226.357 121.222 226.239 120.743 225.913 120.415L218.858 113.321C218.533 112.993 218.054 112.872 217.613 113.004C217.171 113.137 216.837 113.502 216.746 113.954L216.576 114.789C216.146 114.652 215.659 114.739 215.316 115.08C214.867 115.526 214.848 116.219 215.22 116.71L201.286 127.485C197.478 126.885 193.447 128.007 190.51 130.927L174.547 146.8C172.592 148.745 172.582 151.918 174.527 153.875L185.109 164.517C187.054 166.473 190.228 166.481 192.184 164.537L208.147 148.664C211.083 145.744 212.228 141.719 211.65 137.907Z" fill="black"/>
<path d="M118.953 264.166L104.749 253.75C105.109 253.249 105.072 252.557 104.612 252.122C104.26 251.79 103.771 251.716 103.345 251.864L103.154 251.033C103.051 250.583 102.708 250.227 102.263 250.105C101.819 249.985 101.343 250.118 101.026 250.454L94.1539 257.725C93.8368 258.061 93.7304 258.543 93.8758 258.98C94.0229 259.418 94.3975 259.74 94.8523 259.817L95.6927 259.961C95.5687 260.395 95.6706 260.879 96.0218 261.211C96.4824 261.646 97.1751 261.644 97.6548 261.257L108.857 274.849C108.376 278.674 109.623 282.669 112.633 285.513L128.994 300.975C130.998 302.869 134.171 302.78 136.066 300.775L146.374 289.868C148.269 287.863 148.178 284.69 146.174 282.796L129.813 267.334C126.803 264.49 122.744 263.47 118.953 264.166Z" fill="black"/>
<path d="M57.8927 329.849L40.2993 330.699C40.2632 330.083 39.7996 329.569 39.1677 329.52C38.6858 329.484 38.2589 329.734 38.0208 330.118L37.3494 329.592C36.9865 329.307 36.4963 329.247 36.073 329.433C35.6522 329.618 35.3667 330.022 35.3315 330.482L34.5707 340.458C34.5355 340.918 34.7567 341.36 35.1444 341.608C35.5346 341.856 36.0284 341.87 36.4302 341.643L37.1736 341.226C37.3507 341.641 37.7347 341.954 38.2166 341.99C38.8485 342.039 39.3848 341.6 39.5138 340.997L56.7749 344.505C58.809 347.78 62.293 350.098 66.4222 350.413L88.8683 352.125C91.6181 352.335 94.027 350.268 94.2368 347.518L95.3782 332.553C95.588 329.802 93.5203 327.395 90.7705 327.185L68.3244 325.473C64.1952 325.158 60.3999 326.921 57.8927 329.849Z" fill="black"/>
<path d="M189.221 236.173L176.326 248.172C175.902 247.725 175.216 247.631 174.702 248.002C174.31 248.285 174.145 248.751 174.211 249.198L173.359 249.23C172.898 249.246 172.484 249.516 172.28 249.931C172.079 250.345 172.121 250.837 172.391 251.211L178.245 259.325C178.515 259.699 178.969 259.894 179.425 259.833C179.883 259.771 180.27 259.463 180.431 259.031L180.729 258.232C181.133 258.436 181.628 258.426 182.02 258.144C182.533 257.773 182.66 257.092 182.37 256.548L197.822 248.093C201.488 249.282 205.646 248.806 209.004 246.383L227.26 233.211C229.496 231.597 230.004 228.464 228.389 226.227L219.608 214.057C217.993 211.819 214.86 211.314 212.624 212.927L194.368 226.1C191.01 228.523 189.248 232.319 189.221 236.173Z" fill="#00A651"/>
<path d="M352.041 330.12L368.228 337.062C367.991 337.631 368.183 338.297 368.73 338.617C369.147 338.861 369.64 338.823 370.022 338.583L370.396 339.349C370.597 339.764 371.011 340.033 371.473 340.052C371.933 340.069 372.366 339.831 372.599 339.433L377.653 330.798C377.886 330.4 377.881 329.906 377.641 329.513C377.399 329.12 376.961 328.89 376.501 328.918L375.65 328.968C375.672 328.517 375.464 328.068 375.047 327.824C374.5 327.504 373.826 327.663 373.446 328.148L359.465 317.434C359.071 313.6 356.954 309.989 353.38 307.898L333.952 296.527C331.572 295.134 328.501 295.936 327.107 298.317L319.527 311.27C318.133 313.651 318.937 316.721 321.317 318.114L340.746 329.485C344.32 331.576 348.504 331.654 352.041 330.12Z" fill="#00A651"/>
<path d="M297.778 217.517L314.844 213.155C315.002 213.75 315.56 214.161 316.189 214.082C316.668 214.021 317.036 213.69 317.192 213.267L317.956 213.647C318.368 213.853 318.861 213.814 319.238 213.547C319.613 213.28 319.812 212.828 319.754 212.37L318.497 202.444C318.439 201.986 318.134 201.598 317.705 201.433C317.273 201.269 316.786 201.354 316.438 201.656L315.793 202.214C315.536 201.843 315.098 201.614 314.618 201.675C313.989 201.754 313.552 202.291 313.547 202.908L295.933 202.935C293.283 200.135 289.404 198.563 285.296 199.083L262.963 201.91C260.227 202.256 258.282 204.764 258.628 207.501L260.513 222.39C260.859 225.127 263.368 227.071 266.104 226.725L288.437 223.898C292.545 223.378 295.91 220.889 297.778 217.517Z" fill="#00A651"/>
<path d="M231.773 77.8575L249.291 79.6913C249.234 80.305 249.614 80.884 250.231 81.0277C250.702 81.1372 251.162 80.9547 251.455 80.6115L252.039 81.2329C252.354 81.5697 252.83 81.704 253.276 81.5847C253.72 81.4649 254.064 81.1097 254.169 80.6601L256.436 70.9155C256.541 70.4658 256.39 69.9955 256.044 69.6919C255.696 69.3877 255.21 69.2985 254.779 69.4613L253.98 69.7611C253.869 69.3234 253.536 68.9566 253.066 68.8471C252.448 68.7034 251.852 69.0552 251.633 69.6313L235.105 63.5417C233.592 59.9962 230.501 57.1753 226.467 56.2366L204.542 51.134C201.856 50.5086 199.161 52.185 198.536 54.8721L195.134 69.4891C194.509 72.1762 196.186 74.8703 198.872 75.4954L220.798 80.5981C224.831 81.5367 228.85 80.3706 231.773 77.8575Z" fill="#00A651"/>
<path d="M302.717 152.33L320.206 154.423C320.139 155.036 320.511 155.621 321.126 155.773C321.595 155.89 322.058 155.714 322.356 155.375L322.931 156.005C323.241 156.347 323.715 156.488 324.163 156.376C324.609 156.262 324.957 155.912 325.069 155.464L327.481 145.754C327.592 145.306 327.448 144.834 327.107 144.525C326.763 144.216 326.279 144.119 325.845 144.276L325.042 144.564C324.937 144.124 324.61 143.753 324.141 143.636C323.526 143.483 322.924 143.826 322.696 144.399L306.261 138.065C304.801 134.498 301.751 131.631 297.732 130.633L275.885 125.206C273.209 124.541 270.489 126.177 269.824 128.855L266.206 143.42C265.541 146.097 267.179 148.816 269.855 149.481L291.702 154.908C295.721 155.906 299.757 154.8 302.717 152.33Z" fill="#F0282D"/>
<path d="M218.876 293.646L201.355 295.449C201.285 294.836 200.794 294.348 200.161 294.334C199.678 294.323 199.265 294.596 199.048 294.992L198.349 294.504C197.971 294.239 197.478 294.205 197.066 294.414C196.656 294.622 196.392 295.04 196.382 295.502L196.164 305.505C196.154 305.966 196.399 306.395 196.799 306.622C197.202 306.848 197.696 306.835 198.085 306.587L198.805 306.13C199.004 306.535 199.404 306.826 199.888 306.837C200.521 306.851 201.033 306.384 201.129 305.775L218.555 308.341C220.764 311.5 224.368 313.626 228.509 313.717L251.015 314.208C253.772 314.269 256.065 312.075 256.125 309.316L256.453 294.312C256.513 291.554 254.318 289.262 251.561 289.202L229.055 288.71C224.915 288.62 221.221 290.586 218.876 293.646Z" fill="#F0282D"/>
<path d="M77.2362 13.1368L94.1534 8.2321C94.3312 8.82235 94.9015 9.21537 95.5273 9.11576C96.0046 9.0398 96.3618 8.69742 96.5045 8.26881L97.2794 8.62427C97.6985 8.81734 98.1894 8.7626 98.558 8.48382C98.9243 8.20542 99.1086 7.74691 99.036 7.29104L97.4635 -2.5896C97.3909 -3.04558 97.0734 -3.42411 96.6388 -3.57506C96.2018 -3.72562 95.7181 -3.62513 95.3798 -3.31163L94.7535 -2.73314C94.4848 -3.0963 94.0389 -3.31086 93.5616 -3.2349C92.9358 -3.13529 92.5157 -2.58452 92.5299 -1.96836L74.926 -1.37886C72.1881 -4.09247 68.2616 -5.54006 64.1719 -4.88917L41.9403 -1.3509C39.2168 -0.917671 37.3526 1.6509 37.7862 4.37554L40.1451 19.1966C40.5787 21.9212 43.1482 23.7841 45.8717 23.3507L68.1033 19.8124C72.1929 19.1615 75.4761 16.5664 77.2362 13.1368Z" fill="#F0282D"/>
<path d="M134.066 196.98L151.551 199.099C151.484 199.712 151.854 200.297 152.469 200.451C152.938 200.568 153.401 200.393 153.7 200.054L154.274 200.685C154.583 201.027 155.056 201.169 155.505 201.057C155.951 200.945 156.3 200.595 156.412 200.147L158.838 190.441C158.95 189.993 158.807 189.52 158.466 189.211C158.123 188.901 157.639 188.804 157.205 188.96L156.402 189.246C156.297 188.807 155.971 188.435 155.502 188.318C154.887 188.164 154.285 188.506 154.056 189.078L137.63 182.72C136.175 179.151 133.13 176.28 129.112 175.276L107.273 169.816C104.598 169.147 101.876 170.78 101.207 173.456L97.5673 188.016C96.8983 190.692 98.532 193.413 101.207 194.082L123.047 199.541C127.064 200.546 131.102 199.445 134.066 196.98Z" fill="#F0282D"/>
<path d="M171.658 -16.0143L177.581 -32.6023C178.164 -32.401 178.816 -32.6334 179.102 -33.1992C179.319 -33.6306 179.251 -34.1207 178.987 -34.4872L179.729 -34.9075C180.13 -35.1344 180.373 -35.5644 180.363 -36.0265C180.352 -36.4864 180.088 -36.9042 179.676 -37.1121L170.743 -41.6195C170.331 -41.8275 169.838 -41.7916 169.462 -41.5276C169.084 -41.2613 168.882 -40.8103 168.938 -40.3525L169.041 -39.5061C168.589 -39.5008 168.154 -39.2648 167.937 -38.8333C167.651 -38.2676 167.852 -37.6046 168.36 -37.2555L158.535 -22.6361C154.733 -22.0042 151.261 -19.6675 149.395 -15.9704L139.254 4.12711C138.011 6.58904 139.003 9.60392 141.466 10.8468L154.864 17.6079C157.327 18.8509 160.342 17.8575 161.584 15.3955L171.726 -4.70196C173.591 -8.39906 173.409 -12.58 171.658 -16.0143Z" fill="#0078D0"/>
<path d="M420.326 257.901L430.828 243.761C431.326 244.123 432.018 244.091 432.456 243.633C432.79 243.284 432.868 242.795 432.722 242.367L433.554 242.181C434.004 242.082 434.362 241.741 434.487 241.296C434.61 240.853 434.479 240.376 434.146 240.057L426.916 233.142C426.582 232.823 426.1 232.713 425.663 232.856C425.224 233.001 424.899 233.373 424.82 233.828L424.671 234.667C424.237 234.54 423.753 234.639 423.419 234.989C422.981 235.447 422.979 236.139 423.363 236.621L409.704 247.742C405.882 247.238 401.88 248.461 399.018 251.453L383.458 267.722C381.551 269.714 381.621 272.887 383.615 274.794L394.46 285.168C396.454 287.075 399.627 287.003 401.533 285.01L417.093 268.742C419.956 265.749 421 261.697 420.326 257.901Z" fill="#FFB114"/>
<path d="M77.2362 413.137L94.1534 408.232C94.3312 408.822 94.9015 409.215 95.5273 409.116C96.0046 409.04 96.3618 408.697 96.5045 408.269L97.2794 408.624C97.6985 408.817 98.1894 408.763 98.558 408.484C98.9243 408.205 99.1086 407.747 99.036 407.291L97.4635 397.41C97.3909 396.954 97.0734 396.576 96.6388 396.425C96.2018 396.274 95.7181 396.375 95.3798 396.688L94.7535 397.267C94.4848 396.904 94.0389 396.689 93.5616 396.765C92.9358 396.865 92.5157 397.415 92.5299 398.032L74.926 398.621C72.1881 395.908 68.2616 394.46 64.1719 395.111L41.9403 398.649C39.2168 399.082 37.3526 401.651 37.7862 404.376L40.1451 419.197C40.5787 421.921 43.1482 423.784 45.8717 423.351L68.1033 419.812C72.1929 419.161 75.4761 416.566 77.2362 413.137Z" fill="#F0282D"/>
<path d="M319.158 7.58275L321.342 25.0607C320.731 25.1434 320.253 25.6449 320.253 26.2786C320.253 26.7619 320.535 27.1685 320.936 27.3767L320.463 28.0862C320.207 28.4697 320.184 28.9631 320.401 29.371C320.618 29.7764 321.042 30.0305 321.504 30.0305L331.509 30.0309C331.971 30.0309 332.394 29.7768 332.612 29.3714C332.829 28.9635 332.806 28.47 332.549 28.0866L332.077 27.3771C332.477 27.1689 332.759 26.7623 332.759 26.279C332.759 25.6453 332.282 25.1438 331.671 25.061L333.856 7.58327C336.967 5.3061 339.013 1.65593 339.014 -2.48522L339.014 -24.9966C339.015 -27.7543 336.771 -29.9992 334.012 -29.9993L319.005 -29.9998C316.246 -29.9999 314.002 -27.7552 314.002 -24.9974L314.001 -2.4861C314.001 1.65505 316.048 5.30536 319.158 7.58275Z" fill="black"/>
<path d="M319.158 407.583L321.342 425.061C320.731 425.143 320.253 425.645 320.253 426.279C320.253 426.762 320.535 427.168 320.936 427.377L320.463 428.086C320.207 428.47 320.184 428.963 320.401 429.371C320.618 429.776 321.042 430.03 321.504 430.031L331.509 430.031C331.971 430.031 332.394 429.777 332.612 429.371C332.829 428.963 332.806 428.47 332.549 428.087L332.077 427.377C332.477 427.169 332.759 426.762 332.759 426.279C332.759 425.645 332.282 425.144 331.671 425.061L333.856 407.583C336.967 405.306 339.013 401.656 339.014 397.515L339.014 375.003C339.015 372.246 336.771 370.001 334.012 370.001L319.005 370C316.246 370 314.002 372.245 314.002 375.003L314.001 397.514C314.001 401.655 316.048 405.305 319.158 407.583Z" fill="black"/>
</g>
</g>
</g>
</pattern><clipPath id="clip0_15_194">
<rect width="400" height="400" fill="white"/>
</clipPath>
</defs>
</svg>
