<svg width="99" height="26" viewBox="0 0 99 26" fill="none" xmlns="http://www.w3.org/2000/svg">
<path d="M6.15264 6.95591L5.47564 1.54003C5.66493 1.51438 5.81298 1.35899 5.81298 1.16262C5.81298 1.01286 5.7256 0.886866 5.60139 0.822342L5.74791 0.6025C5.8274 0.483661 5.83456 0.330778 5.7672 0.204381C5.69984 0.0787473 5.5685 1.71661e-05 5.42547 1.71661e-05H2.3252C2.18213 1.71661e-05 2.05083 0.0787473 1.98347 0.204381C1.91611 0.330778 1.9233 0.483697 2.00276 0.6025L2.14929 0.822342C2.02507 0.886866 1.93769 1.01286 1.93769 1.16262C1.93769 1.35899 2.08578 1.51438 2.27503 1.54003L1.59803 6.95591C0.634267 7.66158 3.05233e-05 8.79268 3.05233e-05 10.0759V17.0515C-4.21395e-05 17.9061 0.695195 18.6017 1.55011 18.6017H6.20053C7.05544 18.6017 7.75068 17.9061 7.75068 17.0515V10.0759C7.75068 8.79268 7.11644 7.66158 6.15264 6.95591Z" fill="#0078D0"/>
<path d="M14.9602 14.3542L14.2832 8.93835C14.4725 8.9127 14.6205 8.75731 14.6205 8.56094C14.6205 8.41118 14.5331 8.28518 14.4089 8.22066L14.5554 8.00082C14.6349 7.88198 14.6421 7.72909 14.5747 7.6027C14.5074 7.47706 14.376 7.39833 14.233 7.39833H11.1327C10.9897 7.39833 10.8584 7.47706 10.791 7.6027C10.7237 7.72909 10.7308 7.88201 10.8103 8.00082L10.9568 8.22066C10.8326 8.28518 10.7452 8.41118 10.7452 8.56094C10.7452 8.75731 10.8933 8.9127 11.0826 8.93835L10.4056 14.3542C9.44181 15.0599 8.80757 16.191 8.80757 17.4742V24.4499C8.8075 25.3044 9.50274 26 10.3576 26H15.0081C15.863 26 16.5582 25.3044 16.5582 24.4499V17.4742C16.5582 16.191 15.924 15.0599 14.9602 14.3542Z" fill="#FFB114"/>
<path d="M23.7677 6.9559L23.0907 1.54001C23.28 1.51436 23.428 1.35898 23.428 1.1626C23.428 1.01285 23.3407 0.886849 23.2164 0.822325L23.363 0.602483C23.4425 0.483643 23.4496 0.330761 23.3823 0.204364C23.3149 0.0787301 23.1836 0 23.0405 0H19.9403C19.7972 0 19.6659 0.0787301 19.5985 0.204364C19.5312 0.330761 19.5384 0.48368 19.6178 0.602483L19.7643 0.822325C19.6401 0.886849 19.5527 1.01285 19.5527 1.1626C19.5527 1.35898 19.7008 1.51436 19.8901 1.54001L19.2131 6.9559C18.2493 7.66156 17.6151 8.79267 17.6151 10.0759V17.0515C17.615 17.9061 18.3102 18.6017 19.1652 18.6017H23.8156C24.6705 18.6017 25.3657 17.9061 25.3657 17.0515V10.0759C25.3657 8.79267 24.7315 7.66156 23.7677 6.9559Z" fill="black"/>
<path d="M32.3991 14.3542L31.7221 8.93835C31.9114 8.9127 32.0594 8.75731 32.0594 8.56094C32.0594 8.41118 31.972 8.28518 31.8478 8.22066L31.9944 8.00082C32.0738 7.88198 32.081 7.72909 32.0136 7.6027C31.9463 7.47706 31.8149 7.39833 31.6719 7.39833H28.5716C28.4286 7.39833 28.2973 7.47706 28.2299 7.6027C28.1626 7.72909 28.1697 7.88201 28.2492 8.00082L28.3957 8.22066C28.2715 8.28518 28.1841 8.41118 28.1841 8.56094C28.1841 8.75731 28.3322 8.9127 28.5215 8.93835L27.8445 14.3542C26.8807 15.0599 26.2465 16.191 26.2465 17.4742V24.4499C26.2464 25.3044 26.9416 26 27.7966 26H32.447C33.3019 26 33.9971 25.3044 33.9971 24.4499V17.4742C33.9971 16.191 33.3629 15.0599 32.3991 14.3542Z" fill="#00A651"/>
<path d="M41.2067 6.9559L40.5297 1.54001C40.7189 1.51436 40.867 1.35898 40.867 1.1626C40.867 1.01285 40.7796 0.886849 40.6554 0.822325L40.8019 0.602483C40.8814 0.483643 40.8886 0.330761 40.8212 0.204364C40.7539 0.0787301 40.6225 0 40.4795 0H37.3792C37.2361 0 37.1048 0.0787301 37.0375 0.204364C36.9701 0.330761 36.9773 0.48368 37.0568 0.602483L37.2033 0.822325C37.0791 0.886849 36.9917 1.01285 36.9917 1.1626C36.9917 1.35898 37.1398 1.51436 37.329 1.54001L36.652 6.9559C35.6883 7.66156 35.054 8.79267 35.054 10.0759V17.0515C35.054 17.9061 35.7492 18.6017 36.6041 18.6017H41.2545C42.1095 18.6017 42.8047 17.9061 42.8047 17.0515V10.0759C42.8047 8.79267 42.1705 7.66156 41.2067 6.9559Z" fill="#F0282D"/>
<path d="M98.208 15.4077C98.208 16.2399 98.0693 16.9874 97.7919 17.6501C97.5222 18.3128 97.1446 18.8791 96.6591 19.3492C96.1814 19.8115 95.615 20.1699 94.96 20.4241C94.305 20.6784 93.6038 20.8056 92.8563 20.8056C91.7236 20.8056 90.7873 20.5898 90.0476 20.1583C89.3155 19.7191 88.7376 19.1411 88.3138 18.4245C87.89 17.7079 87.5895 16.8795 87.4122 15.9394C87.2427 14.9993 87.1579 14.0245 87.1579 13.015C87.1579 11.9902 87.2812 11.0077 87.5278 10.0676C87.7821 9.12749 88.1712 8.29527 88.6952 7.57093C89.2192 6.83888 89.8704 6.26095 90.6486 5.83713C91.4269 5.41331 92.3555 5.20141 93.4343 5.20141C94.1894 5.20141 94.9022 5.31699 95.5726 5.54817C96.243 5.77163 96.8287 6.10683 97.3295 6.55377L96.035 8.29912C95.642 7.95236 95.2336 7.70963 94.8098 7.57093C94.3936 7.42452 93.9351 7.35131 93.4343 7.35131C92.787 7.35131 92.2091 7.48231 91.7005 7.74431C91.1919 8.0063 90.7681 8.37618 90.429 8.85394C90.09 9.32399 89.8318 9.88266 89.6546 10.5299C89.4851 11.1772 89.4003 11.8862 89.4003 12.6567C89.6392 11.8553 90.09 11.2003 90.7527 10.6918C91.4154 10.1832 92.29 9.92889 93.3765 9.92889C94.0238 9.92889 94.6402 10.0676 95.2259 10.345C95.8115 10.6224 96.3239 11.0038 96.7632 11.4893C97.2101 11.9671 97.5607 12.5411 97.815 13.2115C98.077 13.8819 98.208 14.614 98.208 15.4077ZM95.8154 15.4077C95.8154 14.4599 95.5534 13.6662 95.0294 13.0266C94.5131 12.387 93.7656 12.0672 92.787 12.0672C91.8392 12.0672 91.0802 12.3639 90.5099 12.9573C89.9474 13.5429 89.6662 14.3173 89.6662 15.2805C89.6662 15.7583 89.7278 16.1975 89.8511 16.5982C89.9821 16.9989 90.1747 17.3534 90.429 17.6616C90.691 17.9699 91.0224 18.2126 91.4231 18.3898C91.8315 18.5593 92.3169 18.6441 92.8795 18.6441C93.7348 18.6441 94.436 18.3628 94.9831 17.8003C95.5379 17.2301 95.8154 16.4326 95.8154 15.4077Z" fill="black"/>
<path d="M84.7884 9.58213C84.7884 10.2911 84.5996 11.0154 84.222 11.7552C83.8445 12.4949 83.3243 13.1961 82.6616 13.8588L77.9457 18.3898H82.3727V16.3208H84.5341V20.5397H74.8249V18.2858L80.9047 12.4718C81.4287 11.9324 81.8063 11.4277 82.0375 10.9576C82.2763 10.4799 82.3958 10.0214 82.3958 9.58213C82.3958 9.18914 82.3187 8.85009 82.1646 8.56497C82.0182 8.27986 81.8255 8.04869 81.5867 7.87145C81.3555 7.68651 81.0896 7.55552 80.7891 7.47846C80.4886 7.3937 80.1881 7.35131 79.8875 7.35131C78.9397 7.35131 78.1923 7.62872 77.6452 8.18354C77.1058 8.73835 76.8361 9.55902 76.8361 10.6455H74.5937C74.5937 8.94255 75.0445 7.60946 75.9461 6.64624C76.8553 5.68302 78.1692 5.20141 79.8875 5.20141C80.5348 5.20141 81.1551 5.29773 81.7485 5.49037C82.3418 5.67531 82.862 5.94887 83.3089 6.31104C83.7635 6.67321 84.1219 7.1317 84.3839 7.68651C84.6536 8.24133 84.7884 8.8732 84.7884 9.58213Z" fill="black"/>
<path d="M71.6116 20.5397H61.9717V5.45569H64.3643V18.3898H71.6116V20.5397Z" fill="black"/>
<path d="M48.1013 12.9919C48.1013 11.9825 48.2092 11.0077 48.4249 10.0676C48.6407 9.12749 48.9759 8.29913 49.4305 7.58249C49.8852 6.86585 50.4785 6.29177 51.2105 5.86025C51.9503 5.42102 52.8403 5.20141 53.8806 5.20141C54.9055 5.20141 55.7762 5.40176 56.4928 5.80246C57.2095 6.20316 57.799 6.75027 58.2613 7.44379L59.7986 5.90649V8.4725L59.0935 9.17758C59.4711 10.3489 59.6599 11.6203 59.6599 12.9919C59.6599 14.0014 59.5559 14.9762 59.3478 15.9163C59.1398 16.8487 58.8084 17.6809 58.3538 18.4129C57.8992 19.1373 57.302 19.7191 56.5622 20.1583C55.8302 20.5898 54.9363 20.8056 53.8806 20.8056C52.8866 20.8056 52.0389 20.6206 51.3377 20.2508C50.6365 19.8732 50.0547 19.3607 49.5923 18.7135L48.0088 20.3086V17.7425L48.7139 17.0375C48.4981 16.4364 48.344 15.793 48.2515 15.1072C48.1514 14.4214 48.1013 13.7163 48.1013 12.9919ZM50.4939 12.9919C50.4939 13.3541 50.5016 13.7086 50.517 14.0553C50.5324 14.4021 50.571 14.7488 50.6326 15.0956L56.5738 9.15446C56.3118 8.61506 55.9612 8.17969 55.5219 7.84834C55.0904 7.51699 54.5433 7.35132 53.8806 7.35132C52.7787 7.35132 51.9387 7.84834 51.3608 8.84238C50.7829 9.83642 50.4939 11.2196 50.4939 12.9919ZM53.8806 18.6441C54.5587 18.6441 55.1135 18.4784 55.545 18.1471C55.9843 17.8157 56.3272 17.3842 56.5738 16.8525C56.828 16.3131 57.0053 15.7044 57.1055 15.0263C57.2133 14.3481 57.2673 13.67 57.2673 12.9919C57.2673 12.676 57.2557 12.3678 57.2326 12.0672C57.2095 11.7667 57.1825 11.4585 57.1517 11.1426L51.2799 17.0375C51.5419 17.5229 51.8771 17.9121 52.2855 18.2049C52.7016 18.4977 53.2333 18.6441 53.8806 18.6441Z" fill="black"/>
</svg>
