<svg width="98" height="27" viewBox="0 0 98 27" fill="none" xmlns="http://www.w3.org/2000/svg">
<path d="M98 15.6034C98 16.3271 97.853 17.0056 97.559 17.6388C97.265 18.2721 96.8654 18.8262 96.3603 19.3011C95.8628 19.7685 95.2861 20.1379 94.6302 20.4093C93.9744 20.6807 93.2846 20.8164 92.5609 20.8164C91.8522 20.8164 91.1964 20.7108 90.5933 20.4997C89.9902 20.2887 89.4587 19.9871 88.9988 19.5951C88.5465 19.2031 88.1809 18.7206 87.902 18.1477C87.623 17.5747 87.4534 16.9189 87.3931 16.1801L89.6208 15.8522C89.6962 16.704 89.9713 17.3938 90.4463 17.9215C90.9287 18.4417 91.6336 18.7018 92.5609 18.7018C93.0358 18.7018 93.458 18.6226 93.8273 18.4643C94.2043 18.2985 94.5209 18.0761 94.7772 17.7971C95.0411 17.5182 95.2408 17.1903 95.3765 16.8133C95.5198 16.4364 95.5914 16.0331 95.5914 15.6034C95.5914 14.6158 95.3351 13.8469 94.8225 13.2966C94.3174 12.7462 93.6464 12.4711 92.8096 12.4711C92.2744 12.4711 91.7768 12.5842 91.317 12.8103C90.8647 13.0365 90.5066 13.4021 90.2427 13.9072H87.902V5.79938H97.1406V7.91397H90.2427V11.7361C90.9363 10.8239 91.9465 10.3678 93.2733 10.3678C93.9065 10.3678 94.5096 10.4922 95.0825 10.741C95.6555 10.9822 96.1568 11.329 96.5865 11.7813C97.0162 12.2261 97.3592 12.7726 97.6155 13.421C97.8718 14.0693 98 14.7968 98 15.6034Z" fill="black"/>
<path d="M84.9393 9.83632C84.9393 10.5299 84.7546 11.2385 84.3852 11.9622C84.0158 12.6859 83.5069 13.3719 82.8586 14.0203L78.245 18.453H82.5759V16.4289H84.6905V20.5563H75.1918V18.3512L81.1398 12.6633C81.6524 12.1356 82.0218 11.6418 82.248 11.182C82.4817 10.7146 82.5985 10.266 82.5985 9.83632C82.5985 9.45185 82.5231 9.12015 82.3724 8.84122C82.2291 8.56229 82.0407 8.33613 81.807 8.16274C81.5808 7.98181 81.3207 7.85366 81.0267 7.77827C80.7327 7.69535 80.4387 7.65388 80.1447 7.65388C79.2175 7.65388 78.4862 7.92527 77.951 8.46806C77.4233 9.01084 77.1594 9.81371 77.1594 10.8767H74.9657C74.9657 9.21061 75.4067 7.90643 76.2887 6.9641C77.1782 6.02177 78.4636 5.5506 80.1447 5.5506C80.778 5.5506 81.3848 5.64483 81.9653 5.8333C82.5458 6.01423 83.0546 6.28185 83.4919 6.63617C83.9366 6.99048 84.2872 7.43903 84.5435 7.98181C84.8074 8.5246 84.9393 9.14277 84.9393 9.83632Z" fill="black"/>
<path d="M72.0482 20.5563H62.6174V5.79938H64.9581V18.453H72.0482V20.5563Z" fill="black"/>
<path d="M49.0478 13.1722C49.0478 12.1846 49.1534 11.231 49.3645 10.3113C49.5755 9.39154 49.9035 8.58113 50.3482 7.88004C50.793 7.17894 51.3735 6.61732 52.0897 6.19515C52.8134 5.76545 53.6841 5.5506 54.7018 5.5506C55.7045 5.5506 56.5563 5.7466 57.2574 6.13861C57.9585 6.53062 58.5352 7.06586 58.9875 7.74434L60.4915 6.24038V8.75075L59.8017 9.44054C60.1711 10.5864 60.3558 11.8303 60.3558 13.1722C60.3558 14.1597 60.254 15.1134 60.0505 16.0331C59.8469 16.9453 59.5228 17.7594 59.078 18.4756C58.6332 19.1842 58.049 19.7534 57.3253 20.1831C56.6091 20.6053 55.7346 20.8164 54.7018 20.8164C53.7293 20.8164 52.9001 20.6354 52.2141 20.2736C51.528 19.9042 50.9589 19.4029 50.5066 18.7696L48.9574 20.3301V17.8197L49.6472 17.13C49.4361 16.5419 49.2853 15.9125 49.1948 15.2415C49.0968 14.5706 49.0478 13.8808 49.0478 13.1722ZM51.3886 13.1722C51.3886 13.5265 51.3961 13.8733 51.4112 14.2125C51.4263 14.5517 51.464 14.891 51.5243 15.2302L57.3366 9.41792C57.0803 8.89022 56.7373 8.46428 56.3076 8.14012C55.8854 7.81596 55.3501 7.65388 54.7018 7.65388C53.6238 7.65388 52.8021 8.14012 52.2367 9.11261C51.6713 10.0851 51.3886 11.4383 51.3886 13.1722ZM54.7018 18.7018C55.3652 18.7018 55.908 18.5397 56.3302 18.2155C56.7599 17.8914 57.0953 17.4692 57.3366 16.949C57.5854 16.4213 57.7587 15.8258 57.8567 15.1624C57.9623 14.499 58.0151 13.8356 58.0151 13.1722C58.0151 12.8631 58.0037 12.5615 57.9811 12.2675C57.9585 11.9735 57.9321 11.672 57.902 11.3629L52.1575 17.13C52.4138 17.6049 52.7418 17.9856 53.1413 18.2721C53.5484 18.5585 54.0686 18.7018 54.7018 18.7018Z" fill="black"/>
<path d="M6.2403 7.055L5.55365 1.56196C5.74564 1.53595 5.8958 1.37834 5.8958 1.17917C5.8958 1.02728 5.80717 0.89949 5.68119 0.834046L5.8298 0.611073C5.91042 0.490539 5.91768 0.335479 5.84937 0.207281C5.78105 0.0798575 5.64784 5.72205e-06 5.50276 5.72205e-06H2.35833C2.21322 5.72205e-06 2.08005 0.0798575 2.01173 0.207281C1.94341 0.335479 1.95071 0.490576 2.03129 0.611073L2.17991 0.834046C2.05392 0.89949 1.9653 1.02728 1.9653 1.17917C1.9653 1.37834 2.11549 1.53595 2.30744 1.56196L1.6208 7.055C0.643303 7.77072 3.05234e-05 8.91794 3.05234e-05 10.2194V17.2945C-4.31746e-05 18.1612 0.705099 18.8667 1.57219 18.8667H6.28886C7.15596 18.8667 7.8611 18.1612 7.8611 17.2945V10.2194C7.8611 8.91794 7.21783 7.77072 6.2403 7.055Z" fill="#0078D0"/>
<path d="M15.1733 14.5587L14.4867 9.06569C14.6786 9.03968 14.8288 8.88207 14.8288 8.68291C14.8288 8.53101 14.7402 8.40322 14.6142 8.33778L14.7628 8.11481C14.8434 7.99427 14.8507 7.83921 14.7824 7.71101C14.7141 7.58359 14.5809 7.50374 14.4358 7.50374H11.2913C11.1462 7.50374 11.0131 7.58359 10.9447 7.71101C10.8764 7.83921 10.8837 7.99431 10.9643 8.11481L11.1129 8.33778C10.9869 8.40322 10.8983 8.53101 10.8983 8.68291C10.8983 8.88207 11.0485 9.03968 11.2405 9.06569L10.5538 14.5587C9.57632 15.2745 8.93304 16.4217 8.93304 17.7232V24.7982C8.93297 25.6649 9.63811 26.3704 10.5052 26.3704H15.2219C16.089 26.3704 16.7941 25.6649 16.7941 24.7982V17.7232C16.7941 16.4217 16.1508 15.2745 15.1733 14.5587Z" fill="#FFB114"/>
<path d="M24.1063 7.055L23.4197 1.56195C23.6116 1.53594 23.7618 1.37834 23.7618 1.17917C23.7618 1.02728 23.6732 0.899484 23.5472 0.83404L23.6958 0.611067C23.7764 0.490534 23.7837 0.335473 23.7154 0.207276C23.647 0.0798518 23.5138 0 23.3688 0H20.2243C20.0792 0 19.946 0.0798518 19.8777 0.207276C19.8094 0.335473 19.8167 0.490571 19.8973 0.611067L20.0459 0.83404C19.9199 0.899484 19.8313 1.02728 19.8313 1.17917C19.8313 1.37834 19.9815 1.53594 20.1734 1.56195L19.4868 7.055C18.5093 7.77071 17.866 8.91793 17.866 10.2194V17.2944C17.866 18.1612 18.5711 18.8667 19.4382 18.8667H24.1549C25.022 18.8667 25.7271 18.1612 25.7271 17.2944V10.2194C25.7271 8.91793 25.0838 7.77071 24.1063 7.055Z" fill="black"/>
<path d="M32.8607 14.5587L32.174 9.06569C32.366 9.03968 32.5162 8.88207 32.5162 8.68291C32.5162 8.53101 32.4276 8.40322 32.3016 8.33778L32.4502 8.11481C32.5308 7.99427 32.5381 7.83921 32.4697 7.71101C32.4014 7.58359 32.2682 7.50374 32.1231 7.50374H28.9787C28.8336 7.50374 28.7004 7.58359 28.6321 7.71101C28.5638 7.83921 28.5711 7.99431 28.6517 8.11481L28.8003 8.33778C28.6743 8.40322 28.5857 8.53101 28.5857 8.68291C28.5857 8.88207 28.7359 9.03968 28.9278 9.06569L28.2412 14.5587C27.2637 15.2745 26.6204 16.4217 26.6204 17.7232V24.7982C26.6203 25.6649 27.3255 26.3704 28.1926 26.3704H32.9092C33.7763 26.3704 34.4815 25.6649 34.4815 24.7982V17.7232C34.4815 16.4217 33.8382 15.2745 32.8607 14.5587Z" fill="#00A651"/>
<path d="M41.7937 7.055L41.1071 1.56195C41.2991 1.53594 41.4492 1.37834 41.4492 1.17917C41.4492 1.02728 41.3606 0.899484 41.2346 0.83404L41.3832 0.611067C41.4639 0.490534 41.4711 0.335473 41.4028 0.207276C41.3345 0.0798518 41.2013 0 41.0562 0H37.9118C37.7667 0 37.6335 0.0798518 37.5652 0.207276C37.4968 0.335473 37.5041 0.490571 37.5847 0.611067L37.7333 0.83404C37.6074 0.899484 37.5187 1.02728 37.5187 1.17917C37.5187 1.37834 37.6689 1.53594 37.8609 1.56195L37.1742 7.055C36.1967 7.77071 35.5535 8.91793 35.5535 10.2194V17.2944C35.5534 18.1612 36.2585 18.8667 37.1256 18.8667H41.8423C42.7094 18.8667 43.4145 18.1612 43.4145 17.2944V10.2194C43.4145 8.91793 42.7713 7.77071 41.7937 7.055Z" fill="#F0282D"/>
</svg>
