<svg width="139" height="84" viewBox="0 0 139 84" fill="none" xmlns="http://www.w3.org/2000/svg">
<path d="M19.8554 22.4477L17.6706 4.96989C18.2815 4.88712 18.7593 4.38565 18.7593 3.75194C18.7593 3.26865 18.4773 2.86204 18.0764 2.65381L18.5493 1.94435C18.8058 1.56083 18.8289 1.06746 18.6115 0.659558C18.3941 0.254119 17.9703 4.57764e-05 17.5087 4.57764e-05H7.50369C7.04198 4.57764e-05 6.61825 0.254119 6.40087 0.659558C6.1835 1.06746 6.20671 1.56095 6.46313 1.94435L6.93599 2.65381C6.53512 2.86204 6.25314 3.26865 6.25314 3.75194C6.25314 4.38565 6.73104 4.88712 7.34178 4.96989L5.157 22.4477C2.0468 24.725 3.0536e-05 28.3752 3.0536e-05 32.5164V55.0277C-0.000203957 57.7855 2.24343 60.0303 5.00236 60.0303H20.0099C22.7689 60.0303 25.0125 57.7855 25.0125 55.0277V32.5164C25.0125 28.3752 22.9657 24.725 19.8554 22.4477Z" fill="#0078D0"/>
<path d="M48.2787 46.3232L46.0939 28.8453C46.7048 28.7625 47.1825 28.2611 47.1825 27.6274C47.1825 27.1441 46.9006 26.7375 46.4997 26.5292L46.9725 25.8198C47.2291 25.4363 47.2522 24.9429 47.0348 24.535C46.8174 24.1295 46.3936 23.8755 45.932 23.8755H35.927C35.4653 23.8755 35.0415 24.1295 34.8242 24.535C34.6068 24.9429 34.63 25.4364 34.8864 25.8198L35.3593 26.5292C34.9584 26.7375 34.6764 27.1441 34.6764 27.6274C34.6764 28.2611 35.1543 28.7625 35.7651 28.8453L33.5803 46.3232C30.4701 48.6004 28.4233 52.2507 28.4233 56.3918V78.9032C28.4231 81.6609 30.6667 83.9057 33.4256 83.9057H48.4332C51.1921 83.9057 53.4358 81.6609 53.4358 78.9032V56.3918C53.4358 52.2507 51.389 48.6004 48.2787 46.3232Z" fill="#FFB114"/>
<path d="M76.7018 22.4477L74.517 4.96985C75.1278 4.88707 75.6056 4.38561 75.6056 3.75189C75.6056 3.2686 75.3236 2.86199 74.9228 2.65376L75.3956 1.9443C75.6522 1.56079 75.6753 1.06741 75.4579 0.659512C75.2405 0.254073 74.8167 0 74.3551 0H64.3501C63.8884 0 63.4646 0.254073 63.2472 0.659512C63.0299 1.06741 63.0531 1.5609 63.3095 1.9443L63.7824 2.65376C63.3815 2.86199 63.0995 3.2686 63.0995 3.75189C63.0995 4.38561 63.5774 4.88707 64.1882 4.96985L62.0034 22.4477C58.8932 24.725 56.8464 28.3752 56.8464 32.5163V55.0277C56.8462 57.7854 59.0898 60.0303 61.8487 60.0303H76.8563C79.6152 60.0303 81.8589 57.7854 81.8589 55.0277V32.5163C81.8589 28.3752 79.8121 24.725 76.7018 22.4477Z" fill="black"/>
<path d="M104.557 46.3232L102.372 28.8453C102.983 28.7625 103.46 28.2611 103.46 27.6274C103.46 27.1441 103.178 26.7375 102.778 26.5292L103.25 25.8198C103.507 25.4363 103.53 24.9429 103.313 24.535C103.095 24.1295 102.671 23.8755 102.21 23.8755H92.2048C91.7431 23.8755 91.3194 24.1295 91.102 24.535C90.8846 24.9429 90.9078 25.4364 91.1643 25.8198L91.6371 26.5292C91.2362 26.7375 90.9543 27.1441 90.9543 27.6274C90.9543 28.2611 91.4322 28.7625 92.0429 28.8453L89.8581 46.3232C86.7479 48.6004 84.7012 52.2507 84.7012 56.3918V78.9032C84.7009 81.6609 86.9446 83.9057 89.7035 83.9057H104.711C107.47 83.9057 109.714 81.6609 109.714 78.9032V56.3918C109.714 52.2507 107.667 48.6004 104.557 46.3232Z" fill="#00A651"/>
<path d="M132.98 22.4477L130.795 4.96985C131.406 4.88707 131.884 4.38561 131.884 3.75189C131.884 3.2686 131.602 2.86199 131.201 2.65376L131.674 1.9443C131.93 1.56079 131.953 1.06741 131.736 0.659512C131.519 0.254073 131.095 0 130.633 0H120.628C120.166 0 119.743 0.254073 119.525 0.659512C119.308 1.06741 119.331 1.5609 119.588 1.9443L120.06 2.65376C119.66 2.86199 119.378 3.2686 119.378 3.75189C119.378 4.38561 119.855 4.88707 120.466 4.96985L118.281 22.4477C115.171 24.725 113.124 28.3752 113.124 32.5163V55.0277C113.124 57.7854 115.368 60.0303 118.127 60.0303H133.134C135.893 60.0303 138.137 57.7854 138.137 55.0277V32.5163C138.137 28.3752 136.09 24.725 132.98 22.4477Z" fill="#F0282D"/>
</svg>
